HIERARCHY
ROOT SpineBase
{
  OFFSET 0.000000 0.000000 0.000000
  CHANNELS 6 Xposition Yposition Zposition Zrotation Xrotation Yrotation
  JOINT SpineMid
  {
    OFFSET -0.000000 26.195047 0.000000
    CHANNELS 3 Zrotation Xrotation Yrotation
    JOINT SpineShoulder
    {
      OFFSET -0.109749 19.441514 -0.769375
      CHANNELS 3 Zrotation Xrotation Yrotation
      JOINT Neck
      {
        OFFSET -0.042515 6.426994 -0.504773
        CHANNELS 3 Zrotation Xrotation Yrotation
        JOINT Head
        {
          OFFSET 2.547995 9.839293 0.945598
          CHANNELS 3 Zrotation Xrotation Yrotation
          End Site
          {
            OFFSET 0 0 0
          }
        }
      }
      JOINT ShoulderLeft
      {
        OFFSET -11.541421 -2.376092 -7.601817
        CHANNELS 3 Zrotation Xrotation Yrotation
        JOINT ElbowLeft
        {
          OFFSET -2.885429 -21.117501 -2.248266
          CHANNELS 3 Zrotation Xrotation Yrotation
          JOINT WristLeft
          {
            OFFSET 7.673134 -19.063409 -7.087719
            CHANNELS 3 Zrotation Xrotation Yrotation
            JOINT HandLeft
            {
              OFFSET 3.676481 -4.619980 -1.681846
              CHANNELS 3 Zrotation Xrotation Yrotation
              JOINT HandTipLeft
              {
                OFFSET 4.137568 -5.292780 -1.360688
                CHANNELS 3 Zrotation Xrotation Yrotation
                End Site
                {
                  OFFSET 0 0 0
                }
              }
              JOINT ThumbLeft
              {
                OFFSET 2.354504 -0.435159 -3.902719
                CHANNELS 3 Zrotation Xrotation Yrotation
                End Site
                {
                  OFFSET 0 0 0
                }
              }
            }
          }
        }
      }
      JOINT ShoulderRight
      {
        OFFSET 12.003283 -3.352953 5.095499
        CHANNELS 3 Zrotation Xrotation Yrotation
        JOINT ElbowRight
        {
          OFFSET 2.235220 -25.210940 2.296299
          CHANNELS 3 Zrotation Xrotation Yrotation
          JOINT WristRight
          {
            OFFSET 1.353031 -17.421316 -11.153245
            CHANNELS 3 Zrotation Xrotation Yrotation
            JOINT HandRight
            {
              OFFSET 0.467848 -2.378254 -5.572857
              CHANNELS 3 Zrotation Xrotation Yrotation
              JOINT HandTipRight
              {
                OFFSET -1.158031 -2.204146 -3.479056
                CHANNELS 3 Zrotation Xrotation Yrotation
                End Site
                {
                  OFFSET 0 0 0
                }
              }
              JOINT ThumbRight
              {
                OFFSET -2.333625 -0.305588 -2.191672
                CHANNELS 3 Zrotation Xrotation Yrotation
                End Site
                {
                  OFFSET 0 0 0
                }
              }
            }
          }
        }
      }
    }
  }
  JOINT HipLeft
  {
    OFFSET -4.441618 1.227343 -5.371803
    CHANNELS 3 Zrotation Xrotation Yrotation
    JOINT KneeLeft
    {
      OFFSET -5.527541 -35.135974 3.038254
      CHANNELS 3 Zrotation Xrotation Yrotation
      JOINT AnkleLeft
      {
        OFFSET -2.915434 -31.324545 7.046828
        CHANNELS 3 Zrotation Xrotation Yrotation
        JOINT FootLeft
        {
          OFFSET 4.426864 -6.159320 0.789655
          CHANNELS 3 Zrotation Xrotation Yrotation
          End Site
          {
            OFFSET 0 0 0
          }
        }
      }
    }
  }
  JOINT HipRight
  {
    OFFSET 4.113984 0.070565 -0.779860
    CHANNELS 3 Zrotation Xrotation Yrotation
    JOINT KneeRight
    {
      OFFSET -1.131832 -34.110147 4.666496
      CHANNELS 3 Zrotation Xrotation Yrotation
      JOINT AnkleRight
      {
        OFFSET -3.690693 -32.456940 6.440576
        CHANNELS 3 Zrotation Xrotation Yrotation
        JOINT FootRight
        {
          OFFSET -1.621167 -4.694139 -5.853966
          CHANNELS 3 Zrotation Xrotation Yrotation
          End Site
          {
            OFFSET 0 0 0
          }
        }
      }
    }
  }
}
MOTION
Frames: 7
Frame Time: 0.033333
18.866906 72.748939 373.069257 -0.769560 -3.240621 -20.741522 0.063832 -0.057291 20.670612 0.094113 -0.127551 -0.028412 13.074123 8.645580 -3.895825 0.000000 0.000000 0.000000 6.519599 17.291839 -3.516087 116.553870 5.845692 -29.532048 -0.024073 -12.488464 16.967834 -34.361523 29.789090 9.123836 0.000000 0.000000 0.000000 0.000000 0.000000 0.000000 11.492122 18.365907 0.289256 -131.939886 49.462934 114.667331 5.301316 -26.081163 16.911908 -83.367462 21.632606 5.924526 0.000000 0.000000 0.000000 0.000000 0.000000 0.000000 0.008058 5.499715 20.501315 -1.177590 -1.904755 0.177730 -10.387133 -6.036790 -6.607453 0.000000 0.000000 0.000000 -0.837854 4.338721 20.720279 1.160712 -1.547148 0.342358 -4.390177 -3.571197 5.243846 0.000000 0.000000 0.000000
18.766741 72.866611 373.030920 -0.678655 -3.287081 -20.903605 -0.024801 -0.084040 20.837385 0.155860 -0.107453 -0.025218 12.760089 9.606835 -4.196645 0.000000 0.000000 0.000000 8.678011 19.724096 -4.661395 111.754734 5.451935 -24.879994 11.071055 -5.633495 13.380268 -46.250446 27.223558 10.515438 0.000000 0.000000 0.000000 0.000000 0.000000 0.000000 13.312008 16.429138 0.136126 -135.441648 46.871408 116.474819 12.597383 -25.246616 18.663001 -86.610309 18.589251 3.078690 0.000000 0.000000 0.000000 0.000000 0.000000 0.000000 0.026681 5.571809 20.670023 -0.505299 -1.669146 0.351824 -10.981128 -5.848618 -6.418133 0.000000 0.000000 0.000000 -0.844132 4.494531 20.899024 0.918217 -1.783968 0.321925 -3.890854 -4.806499 5.277276 0.000000 0.000000 0.000000
18.671615 73.020220 372.981005 -0.729960 -3.239161 -21.416604 -0.105684 -0.017774 21.347923 0.199472 -0.055060 -0.026127 12.073282 9.655334 -4.074220 0.000000 0.000000 0.000000 11.570794 22.090050 -6.103941 106.809485 4.761154 -20.008828 24.063257 -2.317163 9.787257 -57.816032 25.540886 12.249419 0.000000 0.000000 0.000000 0.000000 0.000000 0.000000 15.568895 16.169320 0.005907 -137.883812 44.814308 116.170109 18.071981 -25.195949 20.293347 -82.952272 18.805569 0.071575 0.000000 0.000000 0.000000 0.000000 0.000000 0.000000 0.102691 5.614885 21.177854 -0.454767 -1.807750 0.393776 -10.703531 -5.014225 -5.725016 0.000000 0.000000 0.000000 -0.731374 4.469786 21.416701 0.808470 -1.749594 0.301367 -1.909774 -2.448180 1.914251 0.000000 0.000000 0.000000
18.596604 73.205404 372.938488 -0.788451 -3.149889 -22.236440 -0.102431 0.130719 22.167413 0.282376 0.016182 -0.020289 10.352202 8.840362 -3.483394 0.000000 0.000000 0.000000 14.787857 24.085922 -7.748068 102.117338 3.850668 -15.540751 38.488433 -5.351442 9.709473 -68.771414 27.202826 16.632643 0.000000 0.000000 0.000000 0.000000 0.000000 0.000000 17.473769 15.685422 -0.059209 -139.800026 43.726933 115.836122 18.472881 -25.170870 20.937231 -71.348998 22.502776 -3.507538 0.000000 0.000000 0.000000 0.000000 0.000000 0.000000 0.073303 5.616846 21.988831 -0.306342 -2.013368 0.455659 -9.327386 -3.024491 -3.889071 0.000000 0.000000 0.000000 -0.708471 4.599262 22.239474 0.773316 -1.992261 0.315330 -2.701922 -8.707320 5.368468 0.000000 0.000000 0.000000
18.540957 73.403412 372.907923 -0.808627 -3.059465 -23.409897 -0.140831 0.300289 23.343541 0.323306 0.077339 -0.015913 8.097415 7.449000 -2.632577 0.000000 0.000000 0.000000 18.140782 25.671720 -9.431417 98.363702 2.913243 -11.843867 55.313017 -17.651688 21.321109 -87.776468 39.770680 32.122334 0.000000 0.000000 0.000000 0.000000 0.000000 0.000000 19.110923 16.760117 -0.189065 -140.268220 43.879791 113.873650 17.024152 -24.017895 21.630097 -48.066850 27.577915 -12.756285 0.000000 0.000000 0.000000 0.000000 0.000000 0.000000 -0.078121 5.553189 23.159614 -0.080337 -2.238423 0.528262 -9.049430 -6.639700 -6.932669 0.000000 0.000000 0.000000 -0.790463 5.131963 23.428116 0.601452 -2.787817 0.346402 -2.410335 -11.457467 6.234970 0.000000 0.000000 0.000000
18.498688 73.586567 372.891013 -0.836793 -2.940343 -24.713567 -0.237680 0.486315 24.650267 0.336777 0.131459 -0.014494 5.814312 5.362611 -1.633731 0.000000 0.000000 0.000000 21.152758 26.725125 -10.879001 96.233539 2.238950 -9.287712 83.955096 -33.491181 59.028854 -135.475053 53.988778 83.358316 0.000000 0.000000 0.000000 0.000000 0.000000 0.000000 20.613289 17.338977 -0.260079 -140.909184 43.897151 112.478393 14.335238 -23.958264 21.869300 -25.153965 25.727772 -23.404802 0.000000 0.000000 0.000000 0.000000 0.000000 0.000000 -0.206311 5.439890 24.463764 0.086851 -2.430355 0.581331 -7.126178 -2.806093 -3.591961 0.000000 0.000000 0.000000 -0.903238 5.390997 24.740670 0.625366 -3.160952 0.378650 -2.659922 -11.296044 6.308623 0.000000 0.000000 0.000000
18.480445 73.731700 372.892944 -0.822399 -2.833432 -25.984113 -0.370121 0.648594 25.926204 0.315603 0.139981 -0.015260 3.553097 3.503015 -0.790297 0.000000 0.000000 0.000000 23.532835 27.012887 -11.863214 94.973580 2.650891 -8.703271 135.379151 -9.288884 146.278603 160.800980 1.778412 164.927122 0.000000 0.000000 0.000000 0.000000 0.000000 0.000000 21.571353 17.328188 -0.245735 -141.467683 43.809796 111.883718 11.522777 -24.781215 21.605758 -9.423936 22.984293 -29.511522 0.000000 0.000000 0.000000 0.000000 0.000000 0.000000 -0.372432 5.278933 25.739866 0.248991 -2.562017 0.621983 -7.864148 12.366652 8.537064 0.000000 0.000000 0.000000 -1.074556 5.371024 26.013580 0.763556 -3.170821 0.401515 1.226240 2.795056 -4.242029 0.000000 0.000000 0.000000
